<?xml version="1.0" encoding="UTF-8"?>
<svg id="Layer_1" xmlns="http://www.w3.org/2000/svg" viewBox="0 0 504.47 472.24">
  <defs>
    <style>
      .cls-1 {
        font-size: 22px;
      }

      .cls-1, .cls-2, .cls-3, .cls-4, .cls-5 {
        fill: #fff;
        font-family: LeagueSpartan-Regular, 'League Spartan';
        font-variation-settings: 'wght' 400;
      }

      .cls-6 {
        fill: #ff0051;
      }

      .cls-2 {
        font-size: 13px;
      }

      .cls-3 {
        font-size: 27px;
      }

      .cls-4 {
        font-size: 15px;
      }

      .cls-7 {
        letter-spacing: -.05em;
      }

      .cls-8 {
        letter-spacing: -.04em;
      }

      .cls-5 {
        font-size: 31px;
      }
    </style>
  </defs>
  <g>
    <path class="cls-6" d="M504.47,0H0c.95,2.19,1.67,4.17,2.65,6.02,1.97,3.69,4.14,7.28,6.13,10.96,3.65,6.75,7.23,13.55,10.85,20.32,3.66,6.84,7.34,13.67,10.98,20.53,2.85,5.36,5.62,10.77,8.49,16.12.24.45.87.85,1.38.96.79.17,1.64.08,2.46.08,139.43,0,278.86,0,418.28.07,2.8,0,3.99-.93,5.17-3.35,3.84-7.87,7.99-15.59,12.09-23.34,2.13-4.02,4.4-7.96,6.58-11.94,4.16-7.58,8.36-15.13,12.45-22.75,2.34-4.37,4.5-8.83,6.96-13.68Z"/>
    <path class="cls-6" d="M457.11,89H47.35c3.6,7.1,7,14.07,10.63,20.91,3.01,5.68,6.41,11.16,9.43,16.84,4.28,8.03,8.32,16.19,12.55,24.25,2.45,4.67,5.01,9.29,7.63,13.87.4.69,1.34,1.26,2.15,1.48.94.26,2,.08,3,.08,106.16,0,212.32-.02,318.49.08,3.53,0,5.25-.92,6.87-4.25,4.01-8.25,8.76-16.14,13.11-24.22,2.17-4.02,4.04-8.2,6.19-12.22,2.78-5.19,5.74-10.28,8.54-15.46,1.65-3.06,3.1-6.23,4.72-9.31,2.06-3.94,4.2-7.84,6.47-12.06Z"/>
    <path class="cls-6" d="M252.06,180.25c-50.19,0-100.37,0-150.56,0-.82,0-1.65,0-2.47,0-1.93,0-3.08.23-1.71,2.64,3.4,5.97,6.64,12.03,9.86,18.1,2.05,3.87,3.88,7.86,5.95,11.72,2.9,5.42,5.99,10.74,8.89,16.16,2.19,4.11,4.13,8.34,6.29,12.47,3.4,6.48,6.83,12.95,10.39,19.34.44.78,1.69,1.23,2.66,1.56.74.25,1.63.07,2.45.07,72.12,0,144.25-.03,216.37.08,3.54,0,5.3-1.2,6.85-4.27,3.92-7.8,8.26-15.39,12.38-23.09,1.69-3.15,3.18-6.4,4.88-9.54,3.35-6.2,6.81-12.35,10.16-18.55,1.69-3.14,3.2-6.37,4.85-9.53,2.6-5,5.2-9.99,7.89-14.94.89-1.65.31-2.15-1.28-2.19-.91-.02-1.83-.02-2.74-.02-50.37,0-100.74,0-151.1,0Z"/>
    <path class="cls-6" d="M147.16,276.51c1.15,2.35,2.13,4.51,3.24,6.6,2.35,4.41,4.76,8.79,7.15,13.18,3.32,6.11,6.7,12.18,9.95,18.32,4.26,8.05,8.39,16.17,12.62,24.23,2.2,4.18,4.46,8.33,6.79,12.43.35.61,1.16,1.15,1.85,1.32,1.04.26,2.17.2,3.26.2,40.03,0,80.07-.03,120.1.07,3.23,0,4.85-.95,6.35-3.98,3.83-7.74,8.34-15.15,12.48-22.75,2.13-3.91,3.97-7.98,6.07-11.91,2.86-5.34,5.89-10.6,8.76-15.94,1.65-3.06,3.08-6.23,4.69-9.31,2.1-4.02,4.29-7.99,6.45-12-1.42-1.03-204.01-1.61-209.78-.46Z"/>
    <path class="cls-6" d="M308.91,366.62h-113.68c2.51,4.81,4.92,9.57,7.45,14.26,2.79,5.17,5.75,10.26,8.52,15.44,1.98,3.71,3.69,7.56,5.69,11.26,3.04,5.64,6.27,11.19,9.34,16.82,1.71,3.13,3.22,6.37,4.89,9.53,3.59,6.78,7.26,13.53,10.82,20.32,2.9,5.53,5.69,11.13,8.58,16.67.31.58,1.1,1.4,1.52,1.32.66-.13,1.4-.81,1.73-1.46,4.43-8.56,8.74-17.19,13.2-25.74,3.51-6.73,7.13-13.4,10.78-20.06,4.12-7.52,8.37-14.96,12.47-22.49,2.13-3.92,3.97-8,6.08-11.94,2.87-5.35,5.91-10.6,8.78-15.95,1.38-2.57,2.54-5.26,3.83-7.98Z"/>
  </g>
  <text class="cls-2" transform="translate(231.94 392.5)"><tspan x="0" y="0">DEPONI</tspan></text>
  <text class="cls-4" transform="translate(177.19 319.92)"><tspan x="0" y="0">AF</tspan><tspan class="cls-8" x="15.88" y="0">F</tspan><tspan x="22.17" y="0">ALDSFORB</tspan><tspan class="cls-7" x="88.54" y="0">R</tspan><tspan x="96.14" y="0">ÆNDING</tspan></text>
  <text class="cls-1" transform="translate(169.01 229)"><tspan x="0" y="0">GENANVENDELSE</tspan></text>
  <text class="cls-3" transform="translate(194.33 137.96)"><tspan x="0" y="0">GENBRUG</tspan></text>
  <text class="cls-5" transform="translate(176.02 47.72)"><tspan x="0" y="0">REDUKTION</tspan></text>
</svg>