<?xml version="1.0" encoding="UTF-8"?>
<svg id="Layer_1" xmlns="http://www.w3.org/2000/svg" viewBox="0 0 190.89 22.41">
  <defs>
    <style>
      .cls-1, .cls-2, .cls-3, .cls-4, .cls-5, .cls-6 {
        stroke-miterlimit: 10;
      }

      .cls-1, .cls-2, .cls-4, .cls-5, .cls-6 {
        fill: none;
      }

      .cls-1, .cls-3, .cls-4 {
        stroke: #231f20;
      }

      .cls-2, .cls-6 {
        stroke: #939598;
      }

      .cls-7, .cls-3 {
        fill: #cadf81;
      }

      .cls-3 {
        stroke-width: .5px;
      }

      .cls-4 {
        stroke-dasharray: 4.31 4.31;
      }

      .cls-5 {
        stroke: #cadf81;
        stroke-width: 2px;
      }

      .cls-6 {
        stroke-dasharray: 5.06 5.06;
      }
    </style>
  </defs>
  <g>
    <path class="cls-1" d="M.36,19.86c.54-.58,1.13-1.18,1.75-1.79"/>
    <path class="cls-4" d="M5.31,15.19c3.66-3.02,8.16-5.79,13.28-6.82"/>
    <path class="cls-1" d="M20.71,8.05c.82-.08,1.65-.12,2.5-.1"/>
  </g>
  <g>
    <path class="cls-2" d="M22.64,7.97c.87.02,1.7.09,2.49.21"/>
    <path class="cls-6" d="M29.97,9.61c7.78,3.5,12.14,11.44,22.63,11.98,14.6.76,18.44-13.97,33.71-13.28,11.91.54,13.25,9.67,26.22,12.94,17.74,4.48,26.81-15.3,45.28-12.94,6.72.86,12.22,4.09,16.38,7.51"/>
    <path class="cls-2" d="M176.09,17.47c.64.59,1.24,1.17,1.8,1.73"/>
  </g>
  <g>
    <path class="cls-3" d="M20.66,7.66l5.39-1.2s2.82,1.89,2.47,3.14-.58,3.1-1.89,3.39-1.79-.87-2.71-5.01c0,0,.81,4.59.19,5.58s-5.46-.24-5.96-2,2.52-3.89,2.52-3.89Z"/>
    <line class="cls-3" x1="26.04" y1="6.46" x2="28.74" y2="3.5"/>
    <path class="cls-3" d="M20.65,7.64l5.39-1.2s1.75-2.91.9-3.89S25.09,0,23.78.29s-1.24,1.55-.32,5.69c0,0-1.22-4.5-2.21-5.13s-4.84,2.54-4.54,4.34,3.94,2.45,3.94,2.45Z"/>
    <line class="cls-3" x1="26.09" y1="6.38" x2="29.92" y2="7.56"/>
  </g>
  <circle class="cls-7" cx="85.66" cy="7.97" r="3.04"/>
  <circle class="cls-7" cx="154.99" cy="7.97" r="3.04"/>
  <polyline class="cls-5" points="183.21 16.83 186.01 19.86 190.06 13.9"/>
</svg>