<?xml version="1.0" encoding="UTF-8"?>
<svg id="Layer_1" xmlns="http://www.w3.org/2000/svg" viewBox="0 0 192.08 16.41">
  <defs>
    <style>
      .cls-1, .cls-2, .cls-3, .cls-4 {
        stroke-miterlimit: 10;
      }

      .cls-1, .cls-2, .cls-4 {
        stroke: #231f20;
      }

      .cls-1, .cls-3, .cls-4 {
        fill: none;
      }

      .cls-2 {
        fill: #cadf81;
        stroke-width: .5px;
      }

      .cls-3 {
        stroke: #cadf81;
        stroke-width: 2px;
      }

      .cls-4 {
        stroke-dasharray: 4.96 4.96;
      }
    </style>
  </defs>
  <polyline class="cls-3" points="184.4 11.03 187.2 14.06 191.25 8.1"/>
  <g>
    <path class="cls-1" d="M.36,12.42c.54-.58,1.13-1.18,1.75-1.79"/>
    <path class="cls-4" d="M5.81,7.33C10.46,3.6,16.41.37,23.22.5c13.2.26,16.61,12.93,29.96,13.62,14.6.76,18.44-13.97,33.71-13.28,11.91.54,13.25,9.67,26.22,12.94,17.74,4.48,26.81-15.3,45.28-12.94,6.74.86,12.25,4.11,16.42,7.54"/>
    <path class="cls-1" d="M176.67,10.01c.64.59,1.24,1.17,1.8,1.73"/>
  </g>
  <g>
    <path class="cls-2" d="M173.95,7.88l4.45,3.27s.43,3.37-.74,3.92-2.72,1.6-3.8.8-.52-1.92,2-5.34c0,0-2.92,3.63-4.08,3.81s-3.41-4.27-2.41-5.8,4.59-.66,4.59-.66Z"/>
    <line class="cls-2" x1="178.4" y1="11.15" x2="182.4" y2="11.24"/>
    <path class="cls-2" d="M173.97,7.87l4.45,3.27s3.35-.59,3.52-1.88.72-3.07-.37-3.87-1.99.08-4.5,3.5c0,0,2.59-3.87,2.41-5.03s-5.1-1.98-6.26-.57.74,4.58.74,4.58Z"/>
    <line class="cls-2" x1="178.49" y1="11.14" x2="180.12" y2="14.8"/>
  </g>
</svg>