<?xml version="1.0" encoding="UTF-8"?>
<svg id="Layer_1" xmlns="http://www.w3.org/2000/svg" viewBox="0 0 189.15 21.38">
  <defs>
    <style>
      .cls-1, .cls-2, .cls-3, .cls-4 {
        fill: none;
      }

      .cls-1, .cls-2, .cls-3, .cls-4, .cls-5 {
        stroke-miterlimit: 10;
      }

      .cls-1, .cls-4, .cls-5 {
        stroke: #231f20;
      }

      .cls-2 {
        stroke-dasharray: 6.09 6.09;
      }

      .cls-2, .cls-3 {
        stroke: #939598;
      }

      .cls-4 {
        stroke-dasharray: 4.86 4.86;
      }

      .cls-5 {
        fill: #cadf81;
        stroke-width: .5px;
      }
    </style>
  </defs>
  <g>
    <path class="cls-3" d="M156.07,7.27c.84.11,1.66.25,2.46.43"/>
    <path class="cls-2" d="M164.3,9.63c2.94,1.33,5.52,3.04,7.75,4.82"/>
    <path class="cls-3" d="M174.35,16.44c.64.59,1.24,1.17,1.8,1.73"/>
  </g>
  <g>
    <path class="cls-1" d="M.36,18.85c.54-.58,1.13-1.18,1.75-1.79"/>
    <path class="cls-4" d="M5.74,13.83c4.66-3.76,10.64-7.02,17.48-6.89,13.2.26,16.61,12.93,29.96,13.62,14.6.76,18.44-13.97,33.71-13.28,11.91.54,13.25,9.67,26.22,12.94,16.09,4.06,25.04-11.83,40.35-13.06"/>
    <path class="cls-1" d="M155.89,7.09c.81.02,1.64.08,2.49.19"/>
  </g>
  <g>
    <path class="cls-5" d="M151.31,7.66l5.39-1.2s2.82,1.89,2.47,3.14-.58,3.1-1.89,3.39-1.79-.87-2.71-5.01c0,0,.81,4.59.19,5.58s-5.46-.24-5.96-2,2.52-3.89,2.52-3.89Z"/>
    <line class="cls-5" x1="156.7" y1="6.46" x2="159.39" y2="3.5"/>
    <path class="cls-5" d="M151.3,7.64l5.39-1.2s1.75-2.91.9-3.89-1.84-2.56-3.16-2.26-1.24,1.55-.32,5.69c0,0-1.22-4.5-2.21-5.13s-4.84,2.54-4.54,4.34,3.94,2.45,3.94,2.45Z"/>
    <line class="cls-5" x1="156.74" y1="6.38" x2="160.57" y2="7.56"/>
  </g>
</svg>