<?xml version="1.0" encoding="UTF-8"?>
<svg id="Layer_1" xmlns="http://www.w3.org/2000/svg" viewBox="0 0 193.38 21.4">
  <defs>
    <style>
      .cls-1, .cls-2, .cls-3, .cls-4, .cls-5, .cls-6 {
        stroke-miterlimit: 10;
      }

      .cls-1, .cls-2, .cls-3, .cls-5, .cls-6 {
        fill: none;
      }

      .cls-1, .cls-3, .cls-4 {
        stroke: #231f20;
      }

      .cls-2, .cls-6 {
        stroke: #939598;
      }

      .cls-7, .cls-4 {
        fill: #cadf81;
      }

      .cls-3 {
        stroke-dasharray: 4.85 4.85;
      }

      .cls-4 {
        stroke-width: .5px;
      }

      .cls-5 {
        stroke: #cadf81;
        stroke-width: 2px;
      }

      .cls-6 {
        stroke-dasharray: 5.07 5.07;
      }
    </style>
  </defs>
  <g>
    <path class="cls-1" d="M.36,18.76c.54-.58,1.13-1.18,1.75-1.79"/>
    <path class="cls-3" d="M5.73,13.74c4.66-3.76,10.64-7.03,17.49-6.9,13.2.26,16.61,12.93,29.96,13.62,12.9.67,17.4-10.75,28.8-12.94"/>
    <path class="cls-1" d="M84.38,7.21c.8-.05,1.63-.07,2.5-.03"/>
  </g>
  <g>
    <path class="cls-2" d="M88.79,7.3c.88.04,1.71.13,2.49.26"/>
    <path class="cls-6" d="M96.1,9.09c6,2.95,9.19,8.69,18.91,11.14,17.74,4.48,26.81-15.3,45.28-12.94,6.72.86,12.22,4.09,16.38,7.51"/>
    <path class="cls-2" d="M178.58,16.46c.64.59,1.24,1.17,1.8,1.73"/>
  </g>
  <circle class="cls-7" cx="157.48" cy="6.96" r="3.04"/>
  <polyline class="cls-5" points="185.7 15.82 188.5 18.85 192.55 12.89"/>
  <g>
    <path class="cls-4" d="M84.55,6.81l5.5.44s2.14,2.64,1.43,3.72-1.47,2.79-2.81,2.68-1.45-1.36-1.11-5.59c0,0-.57,4.63-1.46,5.39s-5.15-1.84-5.11-3.66,3.56-2.98,3.56-2.98Z"/>
    <line class="cls-4" x1="90.06" y1="7.25" x2="93.5" y2="5.21"/>
    <path class="cls-4" d="M84.56,6.79l5.5.44s2.53-2.27,2-3.45-1.01-2.99-2.35-3.09-1.65,1.12-1.98,5.34c0,0,.16-4.66-.6-5.55s-5.37,1-5.62,2.81,3.04,3.5,3.04,3.5Z"/>
    <line class="cls-4" x1="90.13" y1="7.19" x2="93.43" y2="9.44"/>
  </g>
</svg>