<?xml version="1.0" encoding="UTF-8"?>
<svg id="Layer_1" xmlns="http://www.w3.org/2000/svg" viewBox="0 0 23.38 23">
  <defs>
    <style>
      .cls-1 {
        fill: #fafcf4;
      }
    </style>
  </defs>
  <path class="cls-1" d="M1.1,8.97h21.19v-1.56H1.1v1.56ZM21.82,8.51v.68h1.56v-.68h-1.56ZM19.3,21.44H4.07v1.56h15.23v-1.56ZM1.56,9.19v-.68H0v.68h1.56ZM4.51,21.71c-1.94-3.89-2.96-8.17-2.96-12.52H0c0,4.59,1.07,9.11,3.12,13.22l1.39-.7ZM4.07,21.44c.19,0,.36.11.44.27l-1.39.7c.18.36.55.59.95.59v-1.56ZM18.86,21.71c.08-.17.25-.27.44-.27v1.56c.4,0,.77-.23.95-.59l-1.39-.7ZM21.82,9.19c0,4.35-1.01,8.63-2.96,12.52l1.39.7c2.05-4.1,3.12-8.63,3.12-13.22h-1.56ZM22.28,8.97c-.26,0-.46-.21-.46-.46h1.56c0-.61-.49-1.1-1.1-1.1v1.56ZM1.1,7.41c-.61,0-1.1.49-1.1,1.1h1.56c0,.26-.21.46-.46.46v-1.56ZM6.12,8.59L10.8.8l-1.34-.8-4.68,7.79,1.34.8ZM12.58.8l4.68,7.79,1.34-.8L13.92,0l-1.34.8Z"/>
</svg>