<?xml version="1.0" encoding="UTF-8"?>
<svg id="Layer_1" xmlns="http://www.w3.org/2000/svg" viewBox="0 0 18 18">
  <defs>
    <style>
      .cls-1 {
        fill: #fafcf4;
        fill-rule: evenodd;
      }
    </style>
  </defs>
  <path class="cls-1" d="M5.29.05c.96-.04,1.27-.05,3.71-.05s2.75.01,3.71.05c.96.04,1.61.2,2.19.42.6.23,1.14.58,1.59,1.04.46.45.81.99,1.04,1.59.22.57.37,1.23.42,2.18.04.96.05,1.27.05,3.71s-.01,2.75-.05,3.71c-.04.96-.2,1.61-.42,2.19-.23.59-.54,1.09-1.04,1.59-.45.46-.99.81-1.59,1.04-.57.22-1.23.37-2.19.42-.96.04-1.27.05-3.71.05s-2.75-.01-3.71-.05c-.96-.04-1.61-.2-2.18-.42-.59-.23-1.09-.54-1.59-1.04-.46-.45-.81-.99-1.04-1.59-.22-.57-.37-1.23-.42-2.19-.04-.96-.05-1.27-.05-3.71s.01-2.75.05-3.71c.04-.96.2-1.61.42-2.19.23-.6.58-1.14,1.04-1.59.45-.46.99-.81,1.59-1.04.57-.22,1.23-.37,2.18-.42ZM12.64,1.67c-.95-.04-1.23-.05-3.64-.05s-2.69,0-3.64.05c-.88.04-1.35.19-1.67.31-.42.16-.72.36-1.03.67-.31.32-.51.62-.67,1.04-.12.32-.27.79-.31,1.67-.04.95-.05,1.23-.05,3.64s0,2.69.05,3.64c.04.88.19,1.35.31,1.67.14.39.37.74.67,1.03.29.3.64.53,1.03.67.32.12.79.27,1.67.31.95.04,1.23.05,3.64.05s2.69,0,3.64-.05c.88-.04,1.35-.19,1.67-.31.42-.16.72-.36,1.04-.67.3-.29.53-.64.67-1.03.12-.32.27-.79.31-1.67.04-.95.05-1.23.05-3.64s0-2.69-.05-3.64c-.04-.88-.19-1.35-.31-1.67-.16-.42-.36-.72-.67-1.04-.32-.31-.62-.51-1.04-.67-.32-.12-.79-.27-1.67-.31ZM7.85,11.77c.36.15.75.23,1.15.23.8,0,1.56-.32,2.12-.88.56-.56.88-1.33.88-2.12s-.32-1.56-.88-2.12c-.56-.56-1.33-.88-2.12-.88-.39,0-.78.08-1.15.23-.36.15-.7.37-.97.65-.28.28-.5.61-.65.97-.15.36-.23.75-.23,1.15s.08.78.23,1.15c.15.36.37.7.65.97.28.28.61.5.97.65ZM5.73,5.73c.87-.87,2.04-1.35,3.27-1.35s2.4.49,3.27,1.35,1.35,2.04,1.35,3.27-.49,2.4-1.35,3.27c-.87.87-2.04,1.35-3.27,1.35s-2.4-.49-3.27-1.35c-.87-.87-1.35-2.04-1.35-3.27s.49-2.4,1.35-3.27ZM14.65,5.06c.2-.21.32-.48.32-.77s-.12-.57-.32-.77c-.21-.21-.48-.32-.77-.32s-.57.12-.77.32-.32.48-.32.77.12.57.32.77c.21.21.48.32.77.32s.57-.12.77-.32Z"/>
</svg>