<?xml version="1.0" encoding="UTF-8"?>
<svg id="Layer_1" xmlns="http://www.w3.org/2000/svg" viewBox="0 0 546.2 101.81">
  <defs>
    <style>
      .cls-1 {
        fill: #231f20;
      }
    </style>
  </defs>
  <g>
    <path class="cls-1" d="M28.78,94.04L9.69,45.1l.17,48.93H.32V22.83h10.75l18.92,46.96-.17-46.96h9.55v71.21h-10.58Z"/>
    <path class="cls-1" d="M78.83,94.04c-.34-1.03-.52-2.67-.69-4.9-2.92,4.13-7.05,6.19-11.87,6.19-8.08,0-14.53-5.59-14.53-16.43v-11.27c0-13.85,7.22-14.88,26.06-17.29v-10.32c0-8.17-3.87-9.98-8-9.98s-8,1.89-8,10.06v6.19h-10.06v-7.57c0-11.7,6.97-17.37,18.06-17.37s18.15,5.59,18.15,17.46v47.9c0,3.1.17,5.93.69,7.31h-9.8ZM77.8,59.29c-12.9,1.12-16,3.35-16,10.23v7.74c0,5.07,1.89,9.55,7.57,9.55,6.45,0,8.34-5.76,8.43-13.24v-14.28Z"/>
    <path class="cls-1" d="M107.04,94.04V31.52h-10.15v-8.69h30.53v8.69h-10.23v62.52h-10.15Z"/>
    <path class="cls-1" d="M164.32,94.04l-.43-5.33c-2.84,4.47-6.97,6.62-12.13,6.62-7.31,0-14.45-4.3-14.45-17.2V22.83h10.06v53.92c0,7.65,3.35,10.06,7.48,10.06,5.42,0,8.51-4.13,8.51-12.47V22.83h10.15v71.21h-9.2Z"/>
    <path class="cls-1" d="M214.11,94.04c-.86-2.24-.86-8.43-.86-12.99v-9.8c0-6.54-3.44-7.83-7.05-7.83h-8.94v30.62h-10.06V22.83h22.79c12.21,0,13.42,8.08,13.42,16.77v4.9c0,5.76-.6,12.73-9.46,14.53,9.2,1.29,9.46,7.91,9.46,14.28v10.66c0,3.96.09,8.26.69,10.06h-9.98ZM213.25,41.06c0-6.88-1.63-9.55-7.14-9.55h-8.86v23.22h9.12c5.25,0,6.88-2.24,6.88-7.74v-5.93Z"/>
    <path class="cls-1" d="M271.39,78.13c0,12.3-6.97,17.37-18.06,17.37s-18.15-5.07-18.15-17.37v-39.04c0-12.3,6.97-17.72,18.06-17.72s18.15,5.42,18.15,17.72v22.36h-26.14v14.79c0,6.11,1.72,10.58,8,10.58s8-4.9,8-10.58v-6.79h10.15v8.69ZM261.24,40.63c0-5.68-1.46-10.58-8.08-10.58-6.19,0-7.91,4.47-7.91,10.58v12.13h16v-12.13Z"/>
    <path class="cls-1" d="M293.23,22.83l.43,5.33c2.84-4.47,6.97-6.62,12.13-6.62,7.31,0,14.45,4.3,14.45,17.2v55.3h-10.06v-53.92c0-7.65-3.35-10.06-7.48-10.06-5.42,0-8.51,4.13-8.51,12.47v51.51h-10.15V22.83h9.2Z"/>
  </g>
  <g>
    <path class="cls-1" d="M9.7,16.9l.04-12.6-2.6,12.6h-2.36L2.18,4.3l.04,12.6H0V.34h3.6l2.34,11.66L8.32.34h3.58v16.56h-2.2Z"/>
    <path class="cls-1" d="M20.72,16.9l-.52-3.7h-3.14l-.54,3.7h-2.34L16.72.34h3.86l2.48,16.56h-2.34ZM18.64,2.4l-1.3,8.78h2.58l-1.28-8.78Z"/>
    <path class="cls-1" d="M31.76,16.9l-.16-1.34c-.54,1.08-1.64,1.64-3,1.64-1.94,0-3.48-1.12-3.48-3.96V4.12c0-2.86,1.62-4.12,4.2-4.12s4.22,1.26,4.22,4.12v1.86h-2.36v-1.5c0-1.32-.34-2.46-1.88-2.46-1.44,0-1.84,1.04-1.84,2.46v8.42c0,1.78.78,2.32,1.74,2.32,1.34,0,1.98-1.08,1.98-2.92v-2.38h-1.88v-2.04h4.24v9.02h-1.78Z"/>
    <path class="cls-1" d="M42.18,16.9l-.52-3.7h-3.14l-.54,3.7h-2.34L38.18.34h3.86l2.48,16.56h-2.34ZM40.1,2.4l-1.3,8.78h2.58l-1.28-8.78Z"/>
    <path class="cls-1" d="M54.78,13.24c0,2.86-1.7,4-4.24,4-2.78,0-4.18-1.46-4.18-3.96v-2.08h2.34v1.64c0,1.16.32,2.38,1.86,2.38,1.26,0,1.86-.8,1.86-2.28v-.8c0-3.26-6.06-2.12-6.06-6.96v-1.04c0-2.38,1.24-4.14,4.18-4.14,2.6,0,4.24,1.3,4.24,4v1.62h-2.36v-1.28c0-1.82-.82-2.32-1.84-2.32-1.28,0-1.88.78-1.88,2.26v.66c0,3.28,6.08,1.96,6.08,6.84v1.46Z"/>
    <path class="cls-1" d="M57.58,16.9V.34h2.34v16.56h-2.34Z"/>
    <path class="cls-1" d="M69.74,16.9l-4.44-11.38.04,11.38h-2.22V.34h2.5l4.4,10.92-.04-10.92h2.22v16.56h-2.46Z"/>
    <path class="cls-1" d="M75.38,16.9V.34h6.68v2.02h-4.34v4.96h4.24v2.02h-4.24v5.54h4.34v2.02h-6.68Z"/>
    <path class="cls-1" d="M86.4,16.9V2.36h-2.36V.34h7.1v2.02h-2.38v14.54h-2.36Z"/>
  </g>
  <g>
    <path class="cls-1" d="M327.32,66.96v-19.04h2.69v19.04h-2.69Z"/>
    <path class="cls-1" d="M340.88,66.96l-5.1-13.08.05,13.08h-2.55v-19.04h2.88l5.06,12.56-.05-12.56h2.55v19.04h-2.83Z"/>
    <path class="cls-1" d="M346.96,66.96v-19.04h6.09c3.31,0,3.59,2.14,3.59,4.83v9.38c0,2.69-.28,4.83-3.59,4.83h-6.09ZM353.93,53.14c0-2.14-.32-2.9-1.96-2.9h-2.32v14.4h2.32c1.63,0,1.96-.76,1.96-2.9v-8.6Z"/>
    <path class="cls-1" d="M368.94,62.75c0,3.29-1.96,4.6-4.88,4.6-3.2,0-4.81-1.68-4.81-4.55v-2.39h2.69v1.89c0,1.33.37,2.74,2.14,2.74,1.45,0,2.14-.92,2.14-2.62v-.92c0-3.75-6.97-2.44-6.97-8v-1.2c0-2.74,1.43-4.76,4.81-4.76,2.99,0,4.88,1.49,4.88,4.6v1.86h-2.71v-1.47c0-2.09-.94-2.67-2.12-2.67-1.47,0-2.16.9-2.16,2.6v.76c0,3.77,6.99,2.25,6.99,7.86v1.68Z"/>
    <path class="cls-1" d="M371.75,66.96v-19.04h2.69v19.04h-2.69Z"/>
    <path class="cls-1" d="M385.16,66.96l-.18-1.54c-.62,1.24-1.89,1.89-3.45,1.89-2.23,0-4-1.29-4-4.55v-10.49c0-3.29,1.86-4.74,4.83-4.74s4.85,1.45,4.85,4.74v2.14h-2.71v-1.72c0-1.52-.39-2.83-2.16-2.83-1.66,0-2.12,1.2-2.12,2.83v9.68c0,2.05.9,2.67,2,2.67,1.54,0,2.28-1.24,2.28-3.36v-2.74h-2.16v-2.35h4.88v10.37h-2.05Z"/>
    <path class="cls-1" d="M391.88,66.96v-16.72h-2.71v-2.32h8.16v2.32h-2.74v16.72h-2.71Z"/>
    <path class="cls-1" d="M403.58,52.27c0-3.29,1.86-4.74,4.83-4.74s4.85,1.45,4.85,4.74v10.44c0,3.29-1.86,4.65-4.83,4.65s-4.85-1.36-4.85-4.65v-10.44ZM410.55,52.68c0-1.52-.39-2.83-2.16-2.83-1.66,0-2.12,1.2-2.12,2.83v9.52c0,1.63.46,2.83,2.14,2.83s2.14-1.31,2.14-2.83v-9.52Z"/>
    <path class="cls-1" d="M423.77,66.96l-.18-1.54c-.62,1.24-1.89,1.89-3.45,1.89-2.23,0-4-1.29-4-4.55v-10.49c0-3.29,1.86-4.74,4.83-4.74s4.85,1.45,4.85,4.74v2.14h-2.71v-1.72c0-1.52-.39-2.83-2.16-2.83-1.66,0-2.12,1.2-2.12,2.83v9.68c0,2.05.9,2.67,2,2.67,1.54,0,2.28-1.24,2.28-3.36v-2.74h-2.16v-2.35h4.88v10.37h-2.05Z"/>
    <path class="cls-1" d="M434.86,66.96l-2.85-19.04h2.69l2.37,16.65,2.35-16.65h2.69l-2.8,19.04h-4.44Z"/>
    <path class="cls-1" d="M444.39,66.96v-19.04h2.69v19.04h-2.69Z"/>
    <path class="cls-1" d="M450.34,66.96v-19.04h6.09c3.31,0,3.59,2.14,3.59,4.83v9.38c0,2.69-.28,4.83-3.59,4.83h-6.09ZM457.31,53.14c0-2.14-.32-2.9-1.95-2.9h-2.32v14.4h2.32c1.63,0,1.95-.76,1.95-2.9v-8.6Z"/>
    <path class="cls-1" d="M463.11,66.96v-19.04h7.68v2.32h-4.99v5.7h4.88v2.32h-4.88v6.37h4.99v2.32h-7.68Z"/>
    <path class="cls-1" d="M481.25,66.96l-5.1-13.08.05,13.08h-2.55v-19.04h2.88l5.06,12.56-.05-12.56h2.55v19.04h-2.83Z"/>
    <path class="cls-1" d="M491.69,52.27c0-3.29,1.86-4.74,4.83-4.74s4.85,1.45,4.85,4.74v10.44c0,3.29-1.86,4.65-4.83,4.65s-4.85-1.36-4.85-4.65v-10.44ZM498.66,52.68c0-1.52-.39-2.83-2.16-2.83-1.66,0-2.12,1.2-2.12,2.83v9.52c0,1.63.46,2.83,2.14,2.83s2.14-1.31,2.14-2.83v-9.52Z"/>
    <path class="cls-1" d="M515.59,66.96l.05-14.49-2.99,14.49h-2.71l-2.99-14.49.05,14.49h-2.55v-19.04h4.14l2.69,13.41,2.74-13.41h4.12v19.04h-2.53Z"/>
    <path class="cls-1" d="M327.32,94.56v-19.04h6.09c3.31,0,3.59,2.14,3.59,4.83v9.38c0,2.69-.28,4.83-3.59,4.83h-6.09ZM334.28,80.74c0-2.14-.32-2.9-1.96-2.9h-2.32v14.4h2.32c1.63,0,1.96-.76,1.96-2.9v-8.6Z"/>
    <path class="cls-1" d="M346.52,94.56l-.6-4.25h-3.61l-.62,4.25h-2.69l2.92-19.04h4.44l2.85,19.04h-2.69ZM344.13,77.89l-1.5,10.09h2.97l-1.47-10.09Z"/>
    <path class="cls-1" d="M359.08,94.56l-5.1-13.08.05,13.08h-2.55v-19.04h2.88l5.06,12.56-.05-12.56h2.55v19.04h-2.83Z"/>
    <path class="cls-1" d="M376.3,94.56l.05-14.49-2.99,14.49h-2.71l-2.99-14.49.05,14.49h-2.55v-19.04h4.14l2.69,13.41,2.74-13.41h4.12v19.04h-2.53Z"/>
    <path class="cls-1" d="M388.56,94.56l-.6-4.25h-3.61l-.62,4.25h-2.69l2.92-19.04h4.44l2.85,19.04h-2.69ZM386.17,77.89l-1.49,10.09h2.97l-1.47-10.09Z"/>
    <path class="cls-1" d="M400.71,94.56c-.23-.6-.23-2.25-.23-3.47v-2.62c0-1.75-.92-2.09-1.88-2.09h-2.39v8.19h-2.69v-19.04h6.09c3.26,0,3.59,2.16,3.59,4.48v1.31c0,1.54-.16,3.4-2.53,3.89,2.46.34,2.53,2.12,2.53,3.82v2.85c0,1.06.02,2.21.18,2.69h-2.67ZM400.48,80.39c0-1.84-.44-2.55-1.91-2.55h-2.37v6.21h2.44c1.4,0,1.84-.6,1.84-2.07v-1.59Z"/>
    <path class="cls-1" d="M413.7,94.56l-4.88-7.98v7.98h-2.69v-19.04h2.69v7.89l4.32-7.89h2.9l-5.43,9.43,6.16,9.61h-3.08Z"/>
    <path class="cls-1" d="M427.18,90.35c0,3.29-1.96,4.6-4.88,4.6-3.2,0-4.81-1.68-4.81-4.55v-2.39h2.69v1.89c0,1.33.37,2.74,2.14,2.74,1.45,0,2.14-.92,2.14-2.62v-.92c0-3.75-6.97-2.44-6.97-8v-1.2c0-2.74,1.43-4.76,4.81-4.76,2.99,0,4.88,1.49,4.88,4.6v1.86h-2.71v-1.47c0-2.09-.94-2.67-2.12-2.67-1.47,0-2.16.9-2.16,2.6v.76c0,3.77,6.99,2.25,6.99,7.86v1.68Z"/>
    <path class="cls-1" d="M435.99,94.56l-2.85-19.04h2.69l2.37,16.65,2.35-16.65h2.69l-2.81,19.04h-4.44Z"/>
    <path class="cls-1" d="M445.51,94.56v-19.04h2.69v19.04h-2.69Z"/>
    <path class="cls-1" d="M451.47,94.56v-19.04h2.69v16.72h4.53v2.32h-7.22Z"/>
    <path class="cls-1" d="M460.88,94.56v-19.04h6.09c3.31,0,3.59,2.14,3.59,4.83v9.38c0,2.69-.28,4.83-3.59,4.83h-6.09ZM467.84,80.74c0-2.14-.32-2.9-1.95-2.9h-2.32v14.4h2.32c1.63,0,1.95-.76,1.95-2.9v-8.6Z"/>
    <path class="cls-1" d="M473.64,94.56v-19.04h7.68v2.32h-4.99v5.7h4.88v2.32h-4.88v6.37h4.99v2.32h-7.68Z"/>
    <path class="cls-1" d="M496.36,94.56l-5.1-13.08.05,13.08h-2.55v-19.04h2.88l5.06,12.56-.05-12.56h2.55v19.04h-2.83Z"/>
    <path class="cls-1" d="M508.92,94.56l-.6-4.25h-3.61l-.62,4.25h-2.69l2.92-19.04h4.44l2.85,19.04h-2.69ZM506.53,77.89l-1.5,10.09h2.97l-1.47-10.09Z"/>
    <path class="cls-1" d="M514.83,94.56v-16.72h-2.71v-2.32h8.16v2.32h-2.74v16.72h-2.71Z"/>
    <path class="cls-1" d="M529.48,75.52h2.71v14.79c0,3.29-1.86,4.65-4.85,4.65s-4.83-1.36-4.83-4.65v-14.79h2.69v14.28c0,1.63.46,2.83,2.14,2.83s2.14-1.31,2.14-2.83v-14.28Z"/>
    <path class="cls-1" d="M542.59,94.56c-.23-.6-.23-2.25-.23-3.47v-2.62c0-1.75-.92-2.09-1.89-2.09h-2.39v8.19h-2.69v-19.04h6.09c3.27,0,3.59,2.16,3.59,4.48v1.31c0,1.54-.16,3.4-2.53,3.89,2.46.34,2.53,2.12,2.53,3.82v2.85c0,1.06.02,2.21.18,2.69h-2.67ZM542.36,80.39c0-1.84-.44-2.55-1.91-2.55h-2.37v6.21h2.44c1.4,0,1.84-.6,1.84-2.07v-1.59Z"/>
  </g>
</svg>