<?xml version="1.0" encoding="UTF-8"?>
<svg id="Layer_1" xmlns="http://www.w3.org/2000/svg" viewBox="0 0 320.23 95.5">
  <defs>
    <style>
      .cls-1 {
        fill: #231f20;
      }
    </style>
  </defs>
  <g>
    <path class="cls-1" d="M28.78,94.04L9.69,45.1l.17,48.93H.32V22.83h10.75l18.92,46.96-.17-46.96h9.55v71.21h-10.58Z"/>
    <path class="cls-1" d="M78.83,94.04c-.34-1.03-.52-2.67-.69-4.9-2.92,4.13-7.05,6.19-11.87,6.19-8.08,0-14.53-5.59-14.53-16.43v-11.27c0-13.85,7.22-14.88,26.06-17.29v-10.32c0-8.17-3.87-9.98-8-9.98s-8,1.89-8,10.06v6.19h-10.06v-7.57c0-11.7,6.97-17.37,18.06-17.37s18.15,5.59,18.15,17.46v47.9c0,3.1.17,5.93.69,7.31h-9.8ZM77.8,59.29c-12.9,1.12-16,3.35-16,10.23v7.74c0,5.07,1.89,9.55,7.57,9.55,6.45,0,8.34-5.76,8.43-13.24v-14.28Z"/>
    <path class="cls-1" d="M107.04,94.04V31.52h-10.15v-8.69h30.53v8.69h-10.23v62.52h-10.15Z"/>
    <path class="cls-1" d="M164.32,94.04l-.43-5.33c-2.84,4.47-6.97,6.62-12.13,6.62-7.31,0-14.45-4.3-14.45-17.2V22.83h10.06v53.92c0,7.65,3.35,10.06,7.48,10.06,5.42,0,8.51-4.13,8.51-12.47V22.83h10.15v71.21h-9.2Z"/>
    <path class="cls-1" d="M214.11,94.04c-.86-2.24-.86-8.43-.86-12.99v-9.8c0-6.54-3.44-7.83-7.05-7.83h-8.94v30.62h-10.06V22.83h22.79c12.21,0,13.42,8.08,13.42,16.77v4.9c0,5.76-.6,12.73-9.46,14.53,9.2,1.29,9.46,7.91,9.46,14.28v10.66c0,3.96.09,8.26.69,10.06h-9.98ZM213.25,41.06c0-6.88-1.63-9.55-7.14-9.55h-8.86v23.22h9.12c5.25,0,6.88-2.24,6.88-7.74v-5.93Z"/>
    <path class="cls-1" d="M271.39,78.13c0,12.3-6.97,17.37-18.06,17.37s-18.15-5.07-18.15-17.37v-39.04c0-12.3,6.97-17.72,18.06-17.72s18.15,5.42,18.15,17.72v22.36h-26.14v14.79c0,6.11,1.72,10.58,8,10.58s8-4.9,8-10.58v-6.79h10.15v8.69ZM261.24,40.63c0-5.68-1.46-10.58-8.08-10.58-6.19,0-7.91,4.47-7.91,10.58v12.13h16v-12.13Z"/>
    <path class="cls-1" d="M293.23,22.83l.43,5.33c2.84-4.47,6.97-6.62,12.13-6.62,7.31,0,14.45,4.3,14.45,17.2v55.3h-10.06v-53.92c0-7.65-3.35-10.06-7.48-10.06-5.42,0-8.51,4.13-8.51,12.47v51.51h-10.15V22.83h9.2Z"/>
  </g>
  <g>
    <path class="cls-1" d="M9.7,16.9l.04-12.6-2.6,12.6h-2.36L2.18,4.3l.04,12.6H0V.34h3.6l2.34,11.66L8.32.34h3.58v16.56h-2.2Z"/>
    <path class="cls-1" d="M20.72,16.9l-.52-3.7h-3.14l-.54,3.7h-2.34L16.72.34h3.86l2.48,16.56h-2.34ZM18.64,2.4l-1.3,8.78h2.58l-1.28-8.78Z"/>
    <path class="cls-1" d="M31.76,16.9l-.16-1.34c-.54,1.08-1.64,1.64-3,1.64-1.94,0-3.48-1.12-3.48-3.96V4.12c0-2.86,1.62-4.12,4.2-4.12s4.22,1.26,4.22,4.12v1.86h-2.36v-1.5c0-1.32-.34-2.46-1.88-2.46-1.44,0-1.84,1.04-1.84,2.46v8.42c0,1.78.78,2.32,1.74,2.32,1.34,0,1.98-1.08,1.98-2.92v-2.38h-1.88v-2.04h4.24v9.02h-1.78Z"/>
    <path class="cls-1" d="M42.18,16.9l-.52-3.7h-3.14l-.54,3.7h-2.34L38.18.34h3.86l2.48,16.56h-2.34ZM40.1,2.4l-1.3,8.78h2.58l-1.28-8.78Z"/>
    <path class="cls-1" d="M54.78,13.24c0,2.86-1.7,4-4.24,4-2.78,0-4.18-1.46-4.18-3.96v-2.08h2.34v1.64c0,1.16.32,2.38,1.86,2.38,1.26,0,1.86-.8,1.86-2.28v-.8c0-3.26-6.06-2.12-6.06-6.96v-1.04c0-2.38,1.24-4.14,4.18-4.14,2.6,0,4.24,1.3,4.24,4v1.62h-2.36v-1.28c0-1.82-.82-2.32-1.84-2.32-1.28,0-1.88.78-1.88,2.26v.66c0,3.28,6.08,1.96,6.08,6.84v1.46Z"/>
    <path class="cls-1" d="M57.58,16.9V.34h2.34v16.56h-2.34Z"/>
    <path class="cls-1" d="M69.74,16.9l-4.44-11.38.04,11.38h-2.22V.34h2.5l4.4,10.92-.04-10.92h2.22v16.56h-2.46Z"/>
    <path class="cls-1" d="M75.38,16.9V.34h6.68v2.02h-4.34v4.96h4.24v2.02h-4.24v5.54h4.34v2.02h-6.68Z"/>
    <path class="cls-1" d="M86.4,16.9V2.36h-2.36V.34h7.1v2.02h-2.38v14.54h-2.36Z"/>
  </g>
</svg>