<?xml version="1.0" encoding="UTF-8"?>
<svg id="Layer_1" xmlns="http://www.w3.org/2000/svg" viewBox="0 0 37.23 28.84">
  <defs>
    <style>
      .cls-1 {
        fill: #f16122;
      }

      .cls-2 {
        fill: #e91d25;
      }

      .cls-3 {
        fill: #f79e1d;
      }
    </style>
  </defs>
  <path d="M6.76,28.78v-1.92c0-.73-.45-1.21-1.18-1.21-.39,0-.8.13-1.09.54-.22-.35-.54-.54-1.02-.54-.18,0-.36.03-.52.11-.16.08-.3.19-.41.34v-.39h-.61v3.07h.61v-1.75c0-.54.32-.8.77-.8s.7.29.7.8v1.76h.61v-1.76c0-.54.32-.8.77-.8s.7.29.7.8v1.76h.67ZM16.72,25.74h-1.12v-.93h-.61v.93h-.64v.54h.64v1.44c0,.7.26,1.12,1.02,1.12.29,0,.57-.08.83-.22l-.19-.54c-.17.11-.37.16-.58.16-.32,0-.48-.19-.48-.51v-1.47h1.12v-.51h0ZM22.41,25.65c-.17,0-.33.04-.47.11-.15.08-.27.19-.36.33v-.39h-.61v3.07h.61v-1.72c0-.51.26-.83.67-.83.14,0,.28.03.41.06l.19-.58c-.15-.04-.3-.06-.45-.06ZM13.81,25.97c-.32-.22-.77-.32-1.25-.32-.77,0-1.25.35-1.25.96,0,.51.35.8,1.02.89l.32.03c.35.06.58.19.58.35,0,.22-.26.39-.73.39-.37,0-.73-.1-1.02-.32l-.32.48c.45.32.99.39,1.31.39.89,0,1.37-.41,1.37-.99,0-.54-.39-.8-1.05-.89l-.32-.03c-.29-.03-.54-.13-.54-.32,0-.22.26-.39.61-.39.39,0,.77.16.96.26l.31-.48ZM23.08,27.25c0,.93.61,1.6,1.6,1.6.45,0,.77-.1,1.09-.35l-.32-.48c-.23.18-.51.28-.8.29-.54,0-.96-.41-.96-1.02s.41-1.02.96-1.02c.29,0,.57.1.8.29l.32-.48c-.32-.26-.64-.35-1.09-.35-.96-.06-1.6.61-1.6,1.53h0ZM18.8,25.65c-.89,0-1.5.64-1.5,1.6s.64,1.6,1.56,1.6c.45,0,.89-.14,1.25-.41l-.32-.45c-.26.2-.57.31-.89.32-.41,0-.86-.26-.93-.8h2.27v-.26c0-.96-.58-1.6-1.44-1.6h0ZM18.77,26.22c.45,0,.77.29.8.77h-1.66c.1-.45.39-.77.86-.77ZM10.49,27.25v-1.53h-.61v.39c-.22-.29-.54-.45-.99-.45-.86,0-1.5.67-1.5,1.6s.64,1.6,1.5,1.6c.45,0,.77-.16.99-.45v.39h.61v-1.54ZM8.03,27.25c0-.58.35-1.02.96-1.02.58,0,.93.45.93,1.02,0,.61-.39,1.02-.93,1.02-.61.03-.96-.45-.96-1.02ZM31.64,25.65c-.17,0-.33.04-.47.11-.15.08-.27.19-.36.33v-.39h-.61v3.07h.61v-1.72c0-.51.26-.83.67-.83.14,0,.28.03.41.06l.19-.58c-.15-.04-.3-.06-.45-.06h0ZM29.27,27.25v-1.53h-.61v.39c-.22-.29-.54-.45-.99-.45-.86,0-1.5.67-1.5,1.6s.64,1.6,1.5,1.6c.45,0,.77-.16.99-.45v.39h.61v-1.54ZM26.81,27.25c0-.58.35-1.02.96-1.02.58,0,.93.45.93,1.02,0,.61-.39,1.02-.93,1.02-.61.03-.96-.45-.96-1.02ZM35.44,27.25v-2.75h-.61v1.6c-.22-.29-.54-.45-.99-.45-.86,0-1.5.67-1.5,1.6s.64,1.6,1.5,1.6c.45,0,.77-.16.99-.45v.39h.61v-1.54ZM32.98,27.25c0-.58.35-1.02.96-1.02.58,0,.93.45.93,1.02,0,.61-.39,1.02-.93,1.02-.61.03-.96-.45-.96-1.02h0Z"/>
  <path class="cls-1" d="M13.11,2.46h11.08v18.08h-11.08V2.46Z"/>
  <path class="cls-2" d="M14.23,11.5c0-1.74.39-3.46,1.15-5.02.76-1.57,1.86-2.94,3.22-4.02C16.91,1.13,14.87.3,12.73.07c-2.15-.23-4.31.15-6.25,1.09-1.94.94-3.58,2.41-4.72,4.24-1.14,1.83-1.75,3.94-1.75,6.1s.61,4.27,1.75,6.1c1.14,1.83,2.78,3.3,4.72,4.24,1.94.94,4.11,1.32,6.25,1.09,2.15-.23,4.18-1.06,5.88-2.39-1.36-1.08-2.47-2.45-3.22-4.02-.76-1.57-1.15-3.28-1.15-5.02Z"/>
  <path class="cls-3" d="M37.23,11.5c0,2.16-.6,4.27-1.75,6.1-1.14,1.83-2.78,3.3-4.72,4.24-1.94.94-4.1,1.32-6.25,1.09-2.14-.23-4.18-1.06-5.87-2.39,1.36-1.08,2.47-2.45,3.22-4.02.76-1.57,1.15-3.28,1.15-5.02s-.39-3.46-1.15-5.02c-.76-1.57-1.86-2.94-3.22-4.02,1.7-1.33,3.73-2.16,5.87-2.39,2.14-.23,4.31.15,6.25,1.09,1.94.94,3.57,2.41,4.72,4.24,1.14,1.83,1.75,3.94,1.75,6.1Z"/>
</svg>