<?xml version="1.0" encoding="UTF-8"?>
<svg id="Layer_1" xmlns="http://www.w3.org/2000/svg" viewBox="0 0 24.16 29.63">
  <defs>
    <style>
      .cls-1 {
        fill: #341b14;
      }

      .cls-2 {
        fill: #fcb315;
      }
    </style>
  </defs>
  <path class="cls-1" d="M12.08,28.52c.25-.12,6.62-2.88,8.65-4.54,2.09-1.71,3.19-4.17,3.19-7.11V3.07l-.18-.06C18.64.25,12.33.43,12.02.43c-.25,0-6.56-.18-11.65,2.58l-.12.06v13.86c0,2.94,1.1,5.4,3.19,7.11,2.02,1.66,8.4,4.42,8.65,4.48Z"/>
  <path class="cls-2" d="M12.08,28.83s-6.75-2.94-8.83-4.6c-2.21-1.84-3.25-4.35-3.25-7.24V2.64C5.34-.24,12.08,0,12.08,0c0,0,6.75-.25,12.08,2.64v14.29c0,2.88-1.04,5.4-3.25,7.24-2.09,1.71-8.83,4.66-8.83,4.66ZM.98,16.99c0,2.7.98,4.91,2.88,6.44,1.71,1.41,6.81,3.68,8.22,4.29,1.41-.61,6.56-2.94,8.22-4.29,1.9-1.53,2.88-3.8,2.88-6.44V2.89c-7.11-.67-15.58-.31-22.2,5.83v8.28Z"/>
  <path class="cls-2" d="M18.89,14.97c.92.55,1.29.92,1.35,1.59,0,.74-.49,1.17-1.29,1.17-.68,0-1.47-.37-2.02-.86v1.96c.67.37,1.47.67,2.33.67,2.09,0,3.07-1.47,3.07-2.82.06-1.23-.31-2.21-2.09-3.25-.8-.49-1.41-.8-1.41-1.53s.67-1.04,1.23-1.04c.74,0,1.47.43,1.9.86v-1.84c-.37-.31-1.17-.74-2.33-.67-1.41.06-2.88,1.04-2.88,2.76.06,1.17.43,2.02,2.15,3ZM11.65,19.39c.18.06.49.12.98.12,2.39,0,3.74-2.15,3.74-5.21s-1.41-5.03-3.92-5.03c-1.17,0-2.09.25-2.88.74v13.86h2.09v-4.48ZM11.65,11.05c.18-.06.49-.18.74-.18,1.23,0,1.71.98,1.71,3.37s-.61,3.43-1.84,3.43c-.23,0-.46-.03-.67-.12v-6.5h.06ZM5.21,19.51c1.29,0,2.39-.31,3.19-.86v-9.26h-2.15v8.03c-.25.18-.55.25-.98.25-.98,0-1.1-.92-1.1-1.47v-6.8h-2.15v6.68c0,2.27,1.1,3.43,3.19,3.43ZM19.5,27.79v1.41h.24v-.55h.07l.37.55h.31s-.37-.55-.43-.61c.18-.06.31-.18.31-.37s-.12-.43-.49-.43h-.37ZM19.87,27.97c.18,0,.25.12.25.18,0,.12-.06.25-.31.25h-.06v-.43h.12Z"/>
  <path class="cls-2" d="M20.85,28.46c0,.18-.05.36-.16.51-.1.15-.25.27-.41.34s-.35.09-.53.05c-.18-.04-.34-.12-.47-.25-.13-.13-.22-.29-.25-.47-.04-.18-.02-.36.05-.53.07-.17.19-.31.34-.41.15-.1.33-.15.51-.15.12,0,.24.02.36.07.11.05.22.11.3.2.09.09.15.19.2.3.05.11.07.23.06.36ZM19.93,27.3c-.23,0-.46.07-.65.2-.19.13-.34.31-.43.52s-.11.45-.07.67c.05.23.16.43.32.6.16.16.37.27.6.32.23.04.46.02.67-.07.21-.09.39-.24.52-.43.13-.19.2-.42.2-.65,0-.61-.55-1.17-1.17-1.17Z"/>
</svg>