<?xml version="1.0" encoding="UTF-8"?>
<svg id="Layer_1" xmlns="http://www.w3.org/2000/svg" viewBox="0 0 37.23 11.4">
  <defs>
    <style>
      .cls-1 {
        fill: #194893;
      }
    </style>
  </defs>
  <path class="cls-1" d="M13.15,11.27L15.03.23h3.01l-1.88,11.05h-3.01Z"/>
  <path class="cls-1" d="M27.04.46c-.6-.22-1.53-.46-2.7-.46-2.98,0-5.07,1.5-5.09,3.65-.02,1.59,1.5,2.47,2.64,3,1.17.54,1.57.89,1.56,1.37,0,.74-.94,1.08-1.8,1.08-1.21,0-1.85-.17-2.83-.58l-.39-.18-.42,2.47c.7.31,2,.58,3.35.59,3.17,0,5.22-1.48,5.24-3.77.01-1.26-.79-2.21-2.53-3-1.05-.51-1.7-.85-1.69-1.37,0-.46.55-.95,1.72-.95.98-.02,1.7.2,2.25.42l.27.13.41-2.39Z"/>
  <path class="cls-1" d="M34.79.23h-2.33c-.72,0-1.26.2-1.58.92l-4.47,10.13h3.16s.52-1.36.63-1.66c.35,0,3.42,0,3.86,0,.09.39.37,1.66.37,1.66h2.79L34.79.23ZM31.1,7.36c.25-.64,1.2-3.09,1.2-3.09-.02.03.25-.64.4-1.05l.2.95s.58,2.64.7,3.19h-2.5Z"/>
  <path class="cls-1" d="M.04.23l-.04.23c1.19.29,2.25.71,3.18,1.22l2.67,9.58h3.19S13.78.23,13.78.23h-3.19l-2.95,7.53-.31-1.53s-.03-.09-.05-.14l-1.02-4.93c-.18-.7-.71-.91-1.37-.93H.04Z"/>
</svg>