<?xml version="1.0" encoding="UTF-8"?>
<svg id="Layer_1" xmlns="http://www.w3.org/2000/svg" viewBox="0 0 37.05 39.66">
  <defs>
    <style>
      .cls-1 {
        fill: #fff;
      }

      .cls-1, .cls-2 {
        stroke: #000;
        stroke-miterlimit: 10;
      }

      .cls-2 {
        fill: none;
      }
    </style>
  </defs>
  <ellipse class="cls-1" cx="18.48" cy="22.63" rx="12.01" ry="14.43"/>
  <path class="cls-1" d="M25.81,38.97c7.69-1.71,12.3-10.41,10.29-19.43-2.01-9.02-9.87-14.94-17.56-13.23l7.27,32.66Z"/>
  <path class="cls-1" d="M13.12,6.22c.81-1.39,2.94-2.37,5.43-2.37s4.45.91,5.33,2.21"/>
  <path class="cls-1" d="M11.28,38.97C3.59,37.26-1.02,28.56.99,19.54,2.99,10.52,10.85,4.6,18.54,6.31l-7.27,32.66Z"/>
  <path class="cls-2" d="M24.88,35.13c-2.08,1.65-3.65,1.93-6.35,1.93-2.08,0-4.04-.57-5.79-1.59-.54-.31-.05.08-.54-.31"/>
  <path class="cls-2" d="M25.79,39.07c7.69-1.71,12.3-10.41,10.29-19.43-2.01-9.02-9.87-14.94-17.56-13.23l7.27,32.66Z"/>
  <path class="cls-2" d="M13.1,6.32c.81-1.39,2.94-2.37,5.43-2.37s4.45.91,5.33,2.21"/>
  <path class="cls-2" d="M11.26,39.07C3.57,37.36-1.04,28.66.97,19.64,2.98,10.62,10.84,4.7,18.53,6.41l-7.27,32.66Z"/>
  <line class="cls-2" x1="16.74" y1="3.81" x2="16.22" y2=".07"/>
  <line class="cls-2" x1="20.08" y1="3.95" x2="20.74" y2=".23"/>
</svg>