<?xml version="1.0" encoding="UTF-8"?>
<svg id="Layer_1" xmlns="http://www.w3.org/2000/svg" viewBox="0 0 36.19 40.19">
  <defs>
    <style>
      .cls-1 {
        fill: none;
        stroke: #000;
        stroke-miterlimit: 10;
      }
    </style>
  </defs>
  <path class="cls-1" d="M18.06,39.69c-7.88,0-14.26-7.49-14.26-16.73S10.19,6.23,18.06,6.23v33.46Z"/>
  <path class="cls-1" d="M18.06,39.69c7.88,0,14.26-7.49,14.26-16.73S25.94,6.23,18.06,6.23v33.46Z"/>
  <path class="cls-1" d="M12.28,7.3c0-2,2.59-3.63,5.79-3.63s5.79,1.62,5.79,3.63"/>
  <path class="cls-1" d="M18.06,39.69c-7.88,0-14.26-7.49-14.26-16.73S10.19,6.23,18.06,6.23v33.46Z"/>
  <path class="cls-1" d="M18.06,39.69c7.88,0,14.26-7.49,14.26-16.73S25.94,6.23,18.06,6.23v33.46Z"/>
  <path class="cls-1" d="M12.28,7.3c0-2,2.59-3.63,5.79-3.63s5.79,1.62,5.79,3.63"/>
  <line class="cls-1" x1="30.22" y1="14.29" x2="33.59" y2="12.58"/>
  <line class="cls-1" x1="31.86" y1="17.96" x2="35.43" y2="16.72"/>
  <line class="cls-1" x1="32.39" y1="21.75" x2="36.15" y2="21.39"/>
  <line class="cls-1" x1="32.11" y1="25.08" x2="35.79" y2="25.9"/>
  <line class="cls-1" x1="5.98" y1="14.03" x2="2.61" y2="12.32"/>
  <line class="cls-1" x1="4.33" y1="17.7" x2=".77" y2="16.47"/>
  <line class="cls-1" x1="3.8" y1="21.49" x2=".05" y2="21.14"/>
  <line class="cls-1" x1="4.09" y1="24.82" x2=".4" y2="25.64"/>
  <line class="cls-1" x1="16.32" y1="3.81" x2="15.8" y2=".07"/>
  <line class="cls-1" x1="19.66" y1="3.95" x2="20.32" y2=".23"/>
</svg>