<?xml version="1.0" encoding="UTF-8"?>
<svg id="Layer_1" xmlns="http://www.w3.org/2000/svg" viewBox="0 0 36.19 40.21">
  <defs>
    <style>
      .cls-1 {
        fill: #fff;
      }

      .cls-1, .cls-2 {
        stroke: #000;
        stroke-miterlimit: 10;
      }

      .cls-2 {
        fill: none;
      }
    </style>
  </defs>
  <path class="cls-1" d="M18.06,39.6c-7.88,0-14.26-7.49-14.26-16.73S10.19,6.14,18.06,6.14v33.46Z"/>
  <path class="cls-1" d="M18.06,39.6c7.88,0,14.26-7.49,14.26-16.73S25.94,6.14,18.06,6.14v33.46Z"/>
  <path class="cls-1" d="M12.28,7.21c0-2,2.59-3.63,5.79-3.63s5.79,1.62,5.79,3.63"/>
  <path class="cls-2" d="M18.06,39.71c-7.88,0-14.26-7.49-14.26-16.73S10.19,6.25,18.06,6.25v33.46Z"/>
  <path class="cls-2" d="M18.06,39.71c7.88,0,14.26-7.49,14.26-16.73S25.94,6.25,18.06,6.25v33.46Z"/>
  <path class="cls-2" d="M12.28,7.32c0-2,2.59-3.63,5.79-3.63s5.79,1.62,5.79,3.63"/>
  <line class="cls-2" x1="30.22" y1="14.31" x2="33.59" y2="12.61"/>
  <line class="cls-2" x1="31.86" y1="17.98" x2="35.43" y2="16.75"/>
  <line class="cls-2" x1="32.39" y1="21.77" x2="36.15" y2="21.42"/>
  <line class="cls-2" x1="32.11" y1="25.11" x2="35.79" y2="25.93"/>
  <line class="cls-2" x1="5.98" y1="14.06" x2="2.61" y2="12.35"/>
  <line class="cls-2" x1="4.33" y1="17.72" x2=".77" y2="16.49"/>
  <line class="cls-2" x1="3.8" y1="21.51" x2=".05" y2="21.16"/>
  <line class="cls-2" x1="4.09" y1="24.85" x2=".4" y2="25.67"/>
  <line class="cls-2" x1="16.34" y1="3.7" x2="14.99" y2=".18"/>
  <line class="cls-2" x1="19.87" y1="3.7" x2="21.26" y2=".19"/>
</svg>