<?xml version="1.0" encoding="UTF-8"?>
<svg id="Layer_1" xmlns="http://www.w3.org/2000/svg" viewBox="0 0 42.71 47">
  <defs>
    <style>
      .cls-1 {
        fill: none;
        stroke: #000;
        stroke-miterlimit: 10;
      }
    </style>
  </defs>
  <path class="cls-1" d="M5.2,25.12c2.3,1.12,13.69-2.24,22.35.68,1.12.38,5.67,3.01,6.54,3.24,3.57.95,5.17.28,6.77-1.11,1.72-1.5,1.66-3.82.55-7.54-.65-2.16-5.08-9.03-13.24-11.88-4.3-1.5-3.58-7.14-6.96-7.93s-4.78,4.77-5.77,5.83S-4.43,21.97,1.73,26.65s18,1.05,18,1.05"/>
  <path class="cls-1" d="M17.87,24.49s3.8,5.64,1.07,8.66c-1.74,1.93-2,1.78-4.62,4.07-2.18,1.9-3.2,5.29,1.3,7.75,8.29,4.53,17.41-1.47,14.47-10.99s-5.21-8.85-5.21-8.85"/>
  <path class="cls-1" d="M21.21.58c.01,1.37-.12,3.41-.9,5.7-.73,2.14-1.73,3.63-2.74,5.12-2.87,4.23-4.47,4.66-4.83,7.04-.28,1.83-.03,3.6,1.5,4.51,2.5,1.48,4.18,1.69,4.44,1.63"/>
  <line class="cls-1" x1="22.47" y1="1.21" x2="22.46" y2="1.21"/>
  <path class="cls-1" d="M22.6,24.77c-.54-.21-2.01-.96-2.64-1.82-.9-1.23-.9-2.7-.71-4.17.49-3.85,2.01-5.76,2.79-8.09.72-2.16,1.05-5.41-.82-10.12"/>
  <path class="cls-1" d="M24.89,25.12c1.47-1.05,3.49-2.92,3.76-5.51.17-1.61-.52-3.14-1.9-6.19-1.19-2.62-1.7-3.06-2.5-4.88-.7-1.59-1.52-4.01-1.78-7.33"/>
  <path class="cls-1" d="M24.78,5.18c.16,1.11.53,2.82,1.6,4.56,2.28,3.7,5.32,3.64,6.79,7.02,1.23,2.86.22,5.57.12,5.83-1.01,2.59-3.2,3.79-3.85,4.12"/>
  <path class="cls-1" d="M26.51,7.55c.96.79,2.32,1.95,3.92,3.38,5.64,5.05,6.62,6.81,7.02,7.62.95,1.88,2.29,4.55,1.07,6.91-1.42,2.74-5.26,3.01-5.69,3.04"/>
  <path class="cls-1" d="M19.96.58c-.2,3.21-1.27,5.96-2.02,7.25-1.38,2.36-2.77,3.03-7.62,8.1-2.52,2.63-3.3,4.6-3.13,5.81.52,3.6,3.61,2.8,4.61,3.25"/>
  <path class="cls-1" d="M18.03,1.97c-1.02,3.39-2.49,5.69-3.66,7.17-3.41,4.31-7.74,6.09-10.28,10.99-.64,1.22-1.11,2.55-.55,3.65.54,1.06,1.81,1.43,2.39,1.55"/>
  <path class="cls-1" d="M2.4,19.46c-.23.65-1.37,4.12.41,6.35.64.8,1.49,1.22,2.62,1.79,1.8.89,3.42,1.27,4.52,1.44"/>
  <path class="cls-1" d="M7.71,25.34c.35.61.72,1.1,1.65,1.9,1.17,1.01,2.36,1.5,3.1,1.74"/>
  <path class="cls-1" d="M12.72,24.9c.33.56.76,1.18,2,1.98,1.66,1.07,3.31,1.12,3.97,1.11"/>
</svg>